<svg xmlns="http://www.w3.org/2000/svg" xmlns:xlink="http://www.w3.org/1999/xlink" xmlns:serif="http://www.serif.com/" width="100%" height="100%" viewBox="0 0 252 60" xml:space="preserve" style="fill-rule:evenodd;clip-rule:evenodd;stroke-linejoin:round;stroke-miterlimit:2;">    <g transform="matrix(0.32,0,0,0.32,0,0)">        <g transform="matrix(1,0,0,1,0.191506,-32)">            <g transform="matrix(1,0,0,1,-282.539,2.2113)">                <path d="M365.074,97.386L412.14,29.969L541.74,215.608L509.272,215.608L412.14,75.834L380.251,121.722L438.803,215.608L315.042,215.558L315.007,215.608L282.539,215.608L282.583,215.545L282.539,215.545L299.392,191.421L299.425,191.421L348.533,121.078L334.052,141.877L349.373,166.156L331.725,191.551L393.708,191.801L323.913,82.534L340.766,58.409L365.074,97.386Z" style="fill:white;"></path>            </g>            <g transform="matrix(1,0,0,1,-0.191506,32)">                <use xlink:href="#_Image1" x="97.971" y="0" width="481px" height="187px" transform="matrix(3.12338,0,0,3.11667,0,0)"></use>            </g>        </g>    </g>    <defs>        <image id="_Image1" width="154px" height="60px"></image>    </defs></svg>