<svg xmlns="http://www.w3.org/2000/svg" xmlns:xlink="http://www.w3.org/1999/xlink" width="512px" height="512px" style="shape-rendering:geometricPrecision; text-rendering:geometricPrecision; image-rendering:optimizeQuality; fill-rule:evenodd; clip-rule:evenodd"><g><path style="opacity:0.965" fill="#000101" d="M 340.5,-0.5 C 351.833,-0.5 363.167,-0.5 374.5,-0.5C 440.89,9.63249 484.724,46.6325 506,110.5C 508.179,119.237 510.012,127.903 511.5,136.5C 511.5,147.5 511.5,158.5 511.5,169.5C 502.558,230.21 469.891,272.71 413.5,297C 380.939,308.494 347.939,310.16 314.5,302C 302.5,311.667 290.5,321.333 278.5,331C 272.08,334.112 267.247,332.612 264,326.5C 263.667,309.167 263.333,291.833 263,274.5C 214.092,233.118 195.758,180.785 208,117.5C 223.881,59.2165 260.714,21.3832 318.5,4C 325.931,2.28098 333.265,0.780978 340.5,-0.5 Z"></path></g><g><path style="opacity:1" fill="#2195f2" d="M 397.5,22.5 C 462.378,61.2836 487.212,117.95 472,192.5C 459.296,233.354 434.129,263.688 396.5,283.5C 368.652,291.731 340.818,291.398 313,282.5C 302.144,289.341 291.811,297.008 282,305.5C 281.667,293.167 281.333,280.833 281,268.5C 279.833,266.667 278.667,264.833 277.5,263C 240.236,234.804 221.569,197.137 221.5,150C 226.209,85.9542 258.876,43.2875 319.5,22C 345.581,14.56 371.581,14.7267 397.5,22.5 Z"></path></g><g><path style="opacity:1" fill="#1464bd" d="M 397.5,22.5 C 450.57,40.7364 482.403,77.403 493,132.5C 498.838,187.354 480.005,231.521 436.5,265C 424.293,273.57 410.96,279.737 396.5,283.5C 434.129,263.688 459.296,233.354 472,192.5C 487.212,117.95 462.378,61.2836 397.5,22.5 Z"></path></g><g><path style="opacity:1" fill="#020305" d="M 352.5,50.5 C 373.339,50.5045 383.506,60.8378 383,81.5C 378.163,96.9839 367.663,103.484 351.5,101C 336.756,95.6933 330.589,85.1933 333,69.5C 336.748,60.2508 343.248,53.9175 352.5,50.5 Z"></path></g><g><path style="opacity:1" fill="#f4f4f4" d="M 355.5,67.5 C 363.491,67.6537 366.991,71.6537 366,79.5C 363.413,84.0676 359.579,85.5676 354.5,84C 349.931,81.4586 348.431,77.6253 350,72.5C 351.73,70.5981 353.563,68.9314 355.5,67.5 Z"></path></g><g><path style="opacity:1" fill="#020203" d="M 323.5,204.5 C 326.5,204.5 329.5,204.5 332.5,204.5C 332.5,192.833 332.5,181.167 332.5,169.5C 328.833,169.5 325.167,169.5 321.5,169.5C 318.909,168.746 317.076,167.079 316,164.5C 315.333,150.833 315.333,137.167 316,123.5C 317.167,122.333 318.333,121.167 319.5,120C 329.263,118.871 339.097,118.371 349,118.5C 357.833,118.667 366.667,118.833 375.5,119C 379.02,119.504 381.52,121.337 383,124.5C 383.5,151.165 383.667,177.831 383.5,204.5C 387.514,204.334 391.514,204.501 395.5,205C 397.333,206.167 398.833,207.667 400,209.5C 400.947,223.569 400.614,237.569 399,251.5C 397.833,252.667 396.667,253.833 395.5,255C 370.5,255.667 345.5,255.667 320.5,255C 318.667,253.833 317.167,252.333 316,250.5C 315.333,236.833 315.333,223.167 316,209.5C 317.41,206.211 319.91,204.544 323.5,204.5 Z"></path></g><g><path style="opacity:1" fill="#fbfbfb" d="M 332.5,135.5 C 343.833,135.5 355.167,135.5 366.5,135.5C 366.333,161.835 366.5,188.169 367,214.5C 367.739,217.573 369.572,219.74 372.5,221C 376.152,221.499 379.818,221.665 383.5,221.5C 383.5,227.167 383.5,232.833 383.5,238.5C 366.5,238.5 349.5,238.5 332.5,238.5C 332.5,232.833 332.5,227.167 332.5,221.5C 336.182,221.665 339.848,221.499 343.5,221C 346,219.833 347.833,218 349,215.5C 349.667,196.5 349.667,177.5 349,158.5C 347.833,156.667 346.333,155.167 344.5,154C 340.514,153.501 336.514,153.334 332.5,153.5C 332.5,147.5 332.5,141.5 332.5,135.5 Z"></path></g><g><path style="opacity:1" fill="#1869ab" d="M 321.5,169.5 C 325.167,169.5 328.833,169.5 332.5,169.5C 332.5,181.167 332.5,192.833 332.5,204.5C 329.5,204.5 326.5,204.5 323.5,204.5C 325.948,203.527 328.615,203.194 331.5,203.5C 331.5,192.5 331.5,181.5 331.5,170.5C 327.958,170.813 324.625,170.479 321.5,169.5 Z"></path></g><g><path style="opacity:0.976" fill="#010101" d="M 511.5,385.5 C 511.5,390.5 511.5,395.5 511.5,400.5C 509.652,407.662 505.652,413.495 499.5,418C 453.101,448.062 406.434,477.728 359.5,507C 354.746,508.642 350.079,510.142 345.5,511.5C 274.833,511.5 204.167,511.5 133.5,511.5C 120.967,509.207 109.3,504.54 98.5,497.5C 95.6168,500.109 92.2834,501.942 88.5,503C 63.1667,503.667 37.8333,503.667 12.5,503C 9.55438,502.194 6.88772,500.861 4.5,499C 2.68589,496.521 1.01922,494.021 -0.5,491.5C -0.5,447.833 -0.5,404.167 -0.5,360.5C 2.55312,354.288 7.55312,350.455 14.5,349C 38.5,348.333 62.5,348.333 86.5,349C 91.6162,349.62 95.9496,351.786 99.5,355.5C 122.184,339.489 147.517,331.489 175.5,331.5C 196.322,331.75 214.322,338.916 229.5,353C 235.075,356.455 241.075,358.788 247.5,360C 265.803,361.219 284.136,361.886 302.5,362C 328.182,369.001 339.515,385.667 336.5,412C 337.167,412.167 337.833,412.333 338.5,412.5C 381.338,398.165 424.005,383.332 466.5,368C 479.031,361.93 491.031,362.93 502.5,371C 506.415,375.343 509.415,380.177 511.5,385.5 Z"></path></g><g><path style="opacity:1" fill="#fddfb1" d="M 175.5,349.5 C 188.853,362.294 204.853,369.294 223.5,370.5C 232.596,375.191 242.263,377.858 252.5,378.5C 262.992,379.33 273.659,379.83 284.5,380C 293.896,389.027 296.896,399.86 293.5,412.5C 276.466,410.675 260.133,413.175 244.5,420C 238.563,423.217 233.063,427.051 228,431.5C 225.494,436.62 226.661,440.786 231.5,444C 234.594,444.652 237.594,444.318 240.5,443C 249.464,435.563 259.797,431.229 271.5,430C 295.833,429.667 320.167,429.333 344.5,429C 384.82,415.06 425.153,401.227 465.5,387.5C 466.5,387.5 467.5,387.5 468.5,387.5C 470.105,397.12 467.105,404.953 459.5,411C 416.833,438.333 374.167,465.667 331.5,493C 267.168,493.5 202.834,493.667 138.5,493.5C 124.203,492.905 112.036,487.572 102,477.5C 101.333,444.167 101.333,410.833 102,377.5C 116.122,362.997 133.289,354.164 153.5,351C 160.786,349.814 168.119,349.314 175.5,349.5 Z"></path></g><g><path style="opacity:1" fill="#bda684" d="M 175.5,349.5 C 185.342,349.503 194.675,351.67 203.5,356C 210.348,360.697 217.015,365.53 223.5,370.5C 204.853,369.294 188.853,362.294 175.5,349.5 Z"></path></g><g><path style="opacity:1" fill="#4bae4f" d="M 16.5,366.5 C 39.1667,366.5 61.8333,366.5 84.5,366.5C 84.5,406.167 84.5,445.833 84.5,485.5C 61.8333,485.5 39.1667,485.5 16.5,485.5C 16.5,445.833 16.5,406.167 16.5,366.5 Z"></path></g><g><path style="opacity:1" fill="#bca583" d="M 252.5,378.5 C 267.504,378.333 282.504,378.5 297.5,379C 308.602,380.799 316.102,386.966 320,397.5C 320.631,402.345 319.965,407.012 318,411.5C 309.919,412.482 301.752,412.816 293.5,412.5C 296.896,399.86 293.896,389.027 284.5,380C 273.659,379.83 262.992,379.33 252.5,378.5 Z"></path></g><g><path style="opacity:1" fill="#bda684" d="M 138.5,493.5 C 202.834,493.667 267.168,493.5 331.5,493C 374.167,465.667 416.833,438.333 459.5,411C 467.105,404.953 470.105,397.12 468.5,387.5C 467.5,387.5 466.5,387.5 465.5,387.5C 471.081,385.028 476.914,383.028 483,381.5C 490.167,382 494,385.833 494.5,393C 494.075,397.516 492.075,401.183 488.5,404C 447.33,430.084 406.33,456.417 365.5,483C 359.609,487.113 353.276,490.446 346.5,493C 311.212,494.154 275.879,494.654 240.5,494.5C 206.332,494.5 172.332,494.167 138.5,493.5 Z"></path></g><g><path style="opacity:1" fill="#040803" d="M 38.5,443.5 C 47.1606,442.329 50.994,445.996 50,454.5C 45.7507,461.317 40.7507,461.984 35,456.5C 32.3187,451.055 33.4853,446.722 38.5,443.5 Z"></path></g></svg>