<svg xmlns="http://www.w3.org/2000/svg" xmlns:xlink="http://www.w3.org/1999/xlink" width="512px" height="512px" style="shape-rendering:geometricPrecision; text-rendering:geometricPrecision; image-rendering:optimizeQuality; fill-rule:evenodd; clip-rule:evenodd"><g><path style="opacity:0.969" fill="#060404" d="M -0.5,209.5 C -0.5,169.833 -0.5,130.167 -0.5,90.5C 32.4725,71.345 65.4725,52.1783 98.5,33C 101.783,32.2571 104.783,32.9238 107.5,35C 139.167,53.5 170.833,72 202.5,90.5C 203.32,108.123 203.82,125.79 204,143.5C 212.256,148.713 220.756,153.546 229.5,158C 231.57,158.948 233.07,160.448 234,162.5C 234.667,200.833 234.667,239.167 234,277.5C 233.535,278.931 232.701,280.097 231.5,281C 224.798,284.345 218.465,288.179 212.5,292.5C 217.448,295.605 222.281,298.939 227,302.5C 227.667,341.833 227.667,381.167 227,420.5C 193.598,440.365 159.932,459.699 126,478.5C 91.5734,459.952 57.5734,440.619 24,420.5C 23.3333,381.167 23.3333,341.833 24,302.5C 30.914,297.625 38.0807,293.125 45.5,289C 40.0368,285.858 34.8701,282.358 30,278.5C 29.6667,261.167 29.3333,243.833 29,226.5C 19.2209,220.695 9.38756,215.029 -0.5,209.5 Z"></path></g><g><path style="opacity:1" fill="#f8c8ba" d="M 103.5,43.5 C 78.6687,58.1365 53.6687,72.6365 28.5,87C 27.2888,87.8928 27.2888,88.7261 28.5,89.5C 33.9984,92.4148 39.3318,95.5815 44.5,99C 47.7025,98.9137 50.7025,97.9137 53.5,96C 77.0616,82.3924 100.395,68.559 123.5,54.5C 126.145,55.4906 128.478,56.9906 130.5,59C 100.833,76.1667 71.1667,93.3333 41.5,110.5C 32.1667,105.167 22.8333,99.8333 13.5,94.5C 12.2888,93.7261 12.2888,92.8928 13.5,92C 42.9623,75.3665 72.2956,58.5332 101.5,41.5C 102.522,41.8555 103.189,42.5222 103.5,43.5 Z"></path></g><g><path style="opacity:1" fill="#fedece" d="M 103.5,43.5 C 110.461,46.6467 117.127,50.3134 123.5,54.5C 100.395,68.559 77.0616,82.3924 53.5,96C 50.7025,97.9137 47.7025,98.9137 44.5,99C 39.3318,95.5815 33.9984,92.4148 28.5,89.5C 27.2888,88.7261 27.2888,87.8928 28.5,87C 53.6687,72.6365 78.6687,58.1365 103.5,43.5 Z"></path></g><g><path style="opacity:0.962" fill="#020101" d="M 511.5,97.5 C 511.5,198.167 511.5,298.833 511.5,399.5C 508.748,407.57 503.081,412.403 494.5,414C 421.167,414.667 347.833,414.667 274.5,414C 263.414,411.667 257.581,404.833 257,393.5C 256.016,294.807 256.35,196.141 258,97.5C 260.695,90.1365 265.862,85.6365 273.5,84C 295.831,83.5 318.164,83.3334 340.5,83.5C 340.02,80.3148 340.686,77.4815 342.5,75C 349.826,74.5003 357.159,74.3337 364.5,74.5C 365.686,66.805 370.019,61.6383 377.5,59C 388.227,56.1111 396.727,59.2778 403,68.5C 404.128,70.3453 404.628,72.3453 404.5,74.5C 411.841,74.3337 419.174,74.5003 426.5,75C 428.314,77.4815 428.98,80.3148 428.5,83.5C 450.836,83.3334 473.169,83.5 495.5,84C 503.158,85.8307 508.492,90.3307 511.5,97.5 Z"></path></g><g><path style="opacity:1" fill="#8f594e" d="M 141.5,65.5 C 113.357,82.0743 85.0241,98.4076 56.5,114.5C 55.3358,121.142 55.1691,127.808 56,134.5C 57.1545,135.743 58.4878,136.743 60,137.5C 60.1805,134.305 60.6805,131.305 61.5,128.5C 61.6664,136.174 61.4997,143.841 61,151.5C 56.2488,148.541 51.4155,145.707 46.5,143C 45.351,134.579 45.1843,126.079 46,117.5C 76.5,99.6667 107,81.8333 137.5,64C 139.352,63.2274 140.686,63.7274 141.5,65.5 Z"></path></g><g><path style="opacity:1" fill="#a9685c" d="M 141.5,65.5 C 143.819,65.9925 145.819,66.9925 147.5,68.5C 120.225,85.1447 92.558,101.311 64.5,117C 61.9712,119.642 60.9712,122.808 61.5,126.5C 61.5,127.167 61.5,127.833 61.5,128.5C 60.6805,131.305 60.1805,134.305 60,137.5C 58.4878,136.743 57.1545,135.743 56,134.5C 55.1691,127.808 55.3358,121.142 56.5,114.5C 85.0241,98.4076 113.357,82.0743 141.5,65.5 Z"></path></g><g><path style="opacity:1" fill="#09caf4" d="M 387.5,67.5 C 383.236,68.8636 381.403,71.8636 382,76.5C 379.892,81.7686 376.059,83.7686 370.5,82.5C 372.11,79.8112 372.943,76.8112 373,73.5C 376.446,67.6819 381.28,65.6819 387.5,67.5 Z"></path></g><g><path style="opacity:1" fill="#61dafa" d="M 387.5,67.5 C 394.038,69.2052 397.205,73.5385 397,80.5C 397.708,81.3805 398.542,82.0472 399.5,82.5C 405.979,83.4907 412.646,83.824 419.5,83.5C 419.5,89.8333 419.5,96.1667 419.5,102.5C 399.5,102.5 379.5,102.5 359.5,102.5C 359.5,96.1667 359.5,89.8333 359.5,83.5C 363.042,83.8128 366.375,83.4794 369.5,82.5C 369.833,82.5 370.167,82.5 370.5,82.5C 376.059,83.7686 379.892,81.7686 382,76.5C 381.403,71.8636 383.236,68.8636 387.5,67.5 Z"></path></g><g><path style="opacity:1" fill="#90594e" d="M 147.5,68.5 C 149.969,69.5686 152.302,70.9019 154.5,72.5C 123.636,90.7642 92.6363,108.764 61.5,126.5C 60.9712,122.808 61.9712,119.642 64.5,117C 92.558,101.311 120.225,85.1447 147.5,68.5 Z"></path></g><g><path style="opacity:1" fill="#f8c8ba" d="M 166.5,79.5 C 140.392,94.0566 114.392,108.89 88.5,124C 94.2505,127.626 100.084,131.126 106,134.5C 130.085,120.54 154.252,106.707 178.5,93C 180.635,92.1237 181.969,90.6237 182.5,88.5C 185.022,90.1723 187.688,91.6723 190.5,93C 161.123,110.688 131.456,127.854 101.5,144.5C 92.0428,139.604 82.7095,134.437 73.5,129C 102.833,112 132.167,95 161.5,78C 163.535,77.4014 165.201,77.9014 166.5,79.5 Z"></path></g><g><path style="opacity:1" fill="#fedece" d="M 166.5,79.5 C 171.833,82.5 177.167,85.5 182.5,88.5C 181.969,90.6237 180.635,92.1237 178.5,93C 154.252,106.707 130.085,120.54 106,134.5C 100.084,131.126 94.2505,127.626 88.5,124C 114.392,108.89 140.392,94.0566 166.5,79.5 Z"></path></g><g><path style="opacity:1" fill="#07667b" d="M 369.5,82.5 C 366.375,83.4794 363.042,83.8128 359.5,83.5C 356.167,83.5 352.833,83.5 349.5,83.5C 349.5,93.1667 349.5,102.833 349.5,112.5C 348.506,102.681 348.173,92.6806 348.5,82.5C 355.5,82.5 362.5,82.5 369.5,82.5 Z"></path></g><g><path style="opacity:1" fill="#07c8f1" d="M 359.5,83.5 C 359.5,89.8333 359.5,96.1667 359.5,102.5C 379.5,102.5 399.5,102.5 419.5,102.5C 419.5,105.833 419.5,109.167 419.5,112.5C 396.167,113.833 372.833,113.833 349.5,112.5C 349.5,102.833 349.5,93.1667 349.5,83.5C 352.833,83.5 356.167,83.5 359.5,83.5 Z"></path></g><g><path style="opacity:1" fill="#166678" d="M 399.5,82.5 C 406.5,82.5 413.5,82.5 420.5,82.5C 420.827,92.6806 420.494,102.681 419.5,112.5C 419.5,109.167 419.5,105.833 419.5,102.5C 419.5,96.1667 419.5,89.8333 419.5,83.5C 412.646,83.824 405.979,83.4907 399.5,82.5 Z"></path></g><g><path style="opacity:1" fill="#482d27" d="M 493.5,92.5 C 471.833,92.5 450.167,92.5 428.5,92.5C 428.5,96.5 428.5,100.5 428.5,104.5C 427.515,100.366 427.182,96.0323 427.5,91.5C 449.673,91.1693 471.673,91.5026 493.5,92.5 Z"></path></g><g><path style="opacity:1" fill="#925a4f" d="M 340.5,92.5 C 340.5,96.1667 340.5,99.8333 340.5,103.5C 319.327,103.169 298.327,103.503 277.5,104.5C 276.542,104.953 275.708,105.619 275,106.5C 274.333,201.5 274.333,296.5 275,391.5C 275.5,392 276,392.5 276.5,393C 347.833,393.5 419.166,393.667 490.5,393.5C 420.335,394.333 350.001,394.833 279.5,395C 352.085,396.66 424.752,396.993 497.5,396C 499.66,394.668 501.66,393.168 503.5,391.5C 503.98,397.855 501.314,402.355 495.5,405C 421.5,405.667 347.5,405.667 273.5,405C 271.04,403.542 268.873,401.709 267,399.5C 265.34,299.89 265.007,200.223 266,100.5C 268.007,96.4067 271.173,93.5733 275.5,92C 297.337,91.1705 319.004,91.3372 340.5,92.5 Z"></path></g><g><path style="opacity:1" fill="#935a4f" d="M 493.5,92.5 C 497.928,93.6357 501.095,96.3024 503,100.5C 503.5,196.833 503.667,293.166 503.5,389.5C 500.471,392.4 496.804,393.734 492.5,393.5C 492.783,392.711 493.283,392.044 494,391.5C 494.667,296.5 494.667,201.5 494,106.5C 493.5,106 493,105.5 492.5,105C 471.169,104.5 449.836,104.333 428.5,104.5C 428.5,100.5 428.5,96.5 428.5,92.5C 450.167,92.5 471.833,92.5 493.5,92.5 Z"></path></g><g><path style="opacity:1" fill="#7d6961" d="M 193.5,101.5 C 193.56,100.957 193.893,100.624 194.5,100.5C 195.83,135.331 195.83,169.998 194.5,204.5C 194.5,201.833 194.5,199.167 194.5,196.5C 194.5,165.833 194.5,135.167 194.5,104.5C 194.737,103.209 194.404,102.209 193.5,101.5 Z"></path></g><g><path style="opacity:1" fill="#fdccbd" d="M 17.5,106.5 C 17.1668,136.507 17.5002,166.507 18.5,196.5C 44.5274,211.512 70.5274,226.512 96.5,241.5C 96.8182,246.032 96.4849,250.366 95.5,254.5C 66.3643,238.098 37.3643,221.431 8.5,204.5C 7.33343,169.838 7.16676,135.171 8,100.5C 11.4845,102.15 14.6512,104.15 17.5,106.5 Z"></path></g><g><path style="opacity:1" fill="#fbcbbc" d="M 193.5,101.5 C 194.404,102.209 194.737,103.209 194.5,104.5C 168.442,119.615 142.276,134.615 116,149.5C 115.167,180.172 115.333,210.839 116.5,241.5C 142.527,226.488 168.527,211.488 194.5,196.5C 194.5,199.167 194.5,201.833 194.5,204.5C 164.782,221.109 135.282,238.109 106,255.5C 105.167,220.829 105.333,186.162 106.5,151.5C 135.392,134.557 164.392,117.89 193.5,101.5 Z"></path></g><g><path style="opacity:1" fill="#70453d" d="M 340.5,92.5 C 341.483,96.2984 341.817,100.298 341.5,104.5C 320.167,104.5 298.833,104.5 277.5,104.5C 298.327,103.503 319.327,103.169 340.5,103.5C 340.5,99.8333 340.5,96.1667 340.5,92.5 Z"></path></g><g><path style="opacity:1" fill="#ffdece" d="M 194.5,104.5 C 194.5,135.167 194.5,165.833 194.5,196.5C 168.527,211.488 142.527,226.488 116.5,241.5C 115.333,210.839 115.167,180.172 116,149.5C 142.276,134.615 168.442,119.615 194.5,104.5 Z"></path></g><g><path style="opacity:1" fill="#fedece" d="M 17.5,106.5 C 24.0939,109.911 30.5939,113.577 37,117.5C 37.3333,127.167 37.6667,136.833 38,146.5C 44.914,151.375 52.0807,155.875 59.5,160C 61.9088,161.707 64.5755,162.54 67.5,162.5C 71.8027,163.204 75.3027,161.87 78,158.5C 79.3967,153.292 79.8967,147.959 79.5,142.5C 85.2981,145.233 90.9647,148.233 96.5,151.5C 96.5,181.5 96.5,211.5 96.5,241.5C 70.5274,226.512 44.5274,211.512 18.5,196.5C 17.5002,166.507 17.1668,136.507 17.5,106.5 Z"></path></g><g><path style="opacity:1" fill="#dcd9eb" d="M 292.5,112.5 C 292.5,200.167 292.5,287.833 292.5,375.5C 356.833,375.5 421.167,375.5 485.5,375.5C 485.5,287.833 485.5,200.167 485.5,112.5C 486.499,203.332 486.833,294.332 486.5,385.5C 418.5,385.5 350.5,385.5 282.5,385.5C 282.5,294.5 282.5,203.5 282.5,112.5C 285.833,112.5 289.167,112.5 292.5,112.5 Z"></path></g><g><path style="opacity:1" fill="#f8f6f7" d="M 292.5,112.5 C 308.833,112.5 325.167,112.5 341.5,112.5C 341.232,115.119 341.565,117.619 342.5,120C 370.498,120.5 398.498,120.667 426.5,120.5C 432.941,121.46 436.607,118.793 437.5,112.5C 453.5,112.5 469.5,112.5 485.5,112.5C 485.5,200.167 485.5,287.833 485.5,375.5C 421.167,375.5 356.833,375.5 292.5,375.5C 292.5,287.833 292.5,200.167 292.5,112.5 Z"></path></g><g><path style="opacity:1" fill="#d6d3e5" d="M 437.5,112.5 C 436.607,118.793 432.941,121.46 426.5,120.5C 427.388,117.946 427.721,115.279 427.5,112.5C 430.833,112.5 434.167,112.5 437.5,112.5 Z"></path></g><g><path style="opacity:1" fill="#fdccbd" d="M 79.5,142.5 C 79.8967,147.959 79.3967,153.292 78,158.5C 75.3027,161.87 71.8027,163.204 67.5,162.5C 67.7828,161.711 68.2828,161.044 69,160.5C 69.1684,152.479 69.6684,144.479 70.5,136.5C 73.7376,138.275 76.7376,140.275 79.5,142.5 Z"></path></g><g><path style="opacity:1" fill="#dad7e9" d="M 335.5,182.5 C 336.786,177.076 337.452,171.41 337.5,165.5C 342.013,149.682 336.346,143.682 320.5,147.5C 315.5,147.667 310.5,147.833 305.5,148C 304.956,148.717 304.289,149.217 303.5,149.5C 302.231,143.941 304.231,140.108 309.5,138C 320.167,137.333 330.833,137.333 341.5,138C 343.624,139.122 345.457,140.622 347,142.5C 347.667,154.167 347.667,165.833 347,177.5C 344.468,181.907 340.635,183.574 335.5,182.5 Z"></path></g><g><path style="opacity:1" fill="#070b09" d="M 335.5,182.5 C 325.114,182.809 314.781,182.476 304.5,181.5C 303.501,170.854 303.168,160.187 303.5,149.5C 304.289,149.217 304.956,148.717 305.5,148C 310.5,147.833 315.5,147.667 320.5,147.5C 336.346,143.682 342.013,149.682 337.5,165.5C 337.452,171.41 336.786,177.076 335.5,182.5 Z"></path></g><g><path style="opacity:1" fill="#d7d4e7" d="M 465.5,169.5 C 467.584,167.243 467.917,164.743 466.5,162C 429.5,161.333 392.5,161.333 355.5,162C 354.956,162.717 354.289,163.217 353.5,163.5C 352.426,158.365 354.093,154.532 358.5,152C 396.5,151.333 434.5,151.333 472.5,152C 477.155,154.897 478.655,159.063 477,164.5C 474.181,168.493 470.347,170.16 465.5,169.5 Z"></path></g><g><path style="opacity:1" fill="#bca094" d="M 96.5,151.5 C 97.8302,186.002 97.8302,220.669 96.5,255.5C 95.8933,255.376 95.56,255.043 95.5,254.5C 96.4849,250.366 96.8182,246.032 96.5,241.5C 96.5,211.5 96.5,181.5 96.5,151.5 Z"></path></g><g><path style="opacity:1" fill="#7e655e" d="M 203.5,153.5 C 203.176,160.354 203.509,167.021 204.5,173.5C 204.44,174.043 204.107,174.376 203.5,174.5C 202.181,167.344 202.181,160.344 203.5,153.5 Z"></path></g><g><path style="opacity:1" fill="#f8c9ba" d="M 203.5,153.5 C 209.637,156.736 215.637,160.236 221.5,164C 215.806,167.179 210.139,170.345 204.5,173.5C 203.509,167.021 203.176,160.354 203.5,153.5 Z"></path></g><g><path style="opacity:1" fill="#6ed3a0" d="M 329.5,156.5 C 326.833,156.5 324.167,156.5 321.5,156.5C 321.5,159.167 321.5,161.833 321.5,164.5C 324.167,164.5 326.833,164.5 329.5,164.5C 329.5,167.833 329.5,171.167 329.5,174.5C 323.5,174.5 317.5,174.5 311.5,174.5C 311.5,168.167 311.5,161.833 311.5,155.5C 317.69,155.177 323.69,155.51 329.5,156.5 Z"></path></g><g><path style="opacity:1" fill="#9ae69c" d="M 329.5,156.5 C 329.5,159.167 329.5,161.833 329.5,164.5C 326.833,164.5 324.167,164.5 321.5,164.5C 321.5,161.833 321.5,159.167 321.5,156.5C 324.167,156.5 326.833,156.5 329.5,156.5 Z"></path></g><g><path style="opacity:1" fill="#0d0d0d" d="M 465.5,169.5 C 428.832,169.667 392.165,169.5 355.5,169C 353.845,167.556 353.178,165.722 353.5,163.5C 354.289,163.217 354.956,162.717 355.5,162C 392.5,161.333 429.5,161.333 466.5,162C 467.917,164.743 467.584,167.243 465.5,169.5 Z"></path></g><g><path style="opacity:1" fill="#f6c7b8" d="M 225.5,174.5 C 221.441,176.948 217.275,179.281 213,181.5C 212.667,189.5 212.333,197.5 212,205.5C 210.833,206.667 209.667,207.833 208.5,209C 187.585,221.041 166.751,233.207 146,245.5C 145.333,267.833 145.333,290.167 146,312.5C 172.446,297.029 198.946,281.695 225.5,266.5C 225.777,269.448 225.444,272.281 224.5,275C 195.33,292.086 165.996,308.919 136.5,325.5C 135.333,299.506 135.167,273.506 136,247.5C 158.165,234.752 180.165,221.752 202,208.5C 202.168,200.147 202.668,191.813 203.5,183.5C 210.75,179.292 217.916,174.959 225,170.5C 225.49,171.793 225.657,173.127 225.5,174.5 Z"></path></g><g><path style="opacity:1" fill="#ffdece" d="M 225.5,174.5 C 225.5,205.167 225.5,235.833 225.5,266.5C 198.946,281.695 172.446,297.029 146,312.5C 145.333,290.167 145.333,267.833 146,245.5C 166.751,233.207 187.585,221.041 208.5,209C 209.667,207.833 210.833,206.667 212,205.5C 212.333,197.5 212.667,189.5 213,181.5C 217.275,179.281 221.441,176.948 225.5,174.5 Z"></path></g><g><path style="opacity:1" fill="#dad7ea" d="M 333.5,257.5 C 333.783,256.711 334.283,256.044 335,255.5C 335.667,245.5 335.667,235.5 335,225.5C 334.5,225 334,224.5 333.5,224C 322.424,223.191 311.424,223.358 300.5,224.5C 299.641,219.72 301.308,216.22 305.5,214C 317.167,213.333 328.833,213.333 340.5,214C 342.378,215.543 343.878,217.376 345,219.5C 345.667,230.167 345.667,240.833 345,251.5C 342.892,256.769 339.059,258.769 333.5,257.5 Z"></path></g><g><path style="opacity:1" fill="#060606" d="M 333.5,257.5 C 322.828,257.667 312.161,257.5 301.5,257C 300.513,246.248 300.18,235.415 300.5,224.5C 311.424,223.358 322.424,223.191 333.5,224C 334,224.5 334.5,225 335,225.5C 335.667,235.5 335.667,245.5 335,255.5C 334.283,256.044 333.783,256.711 333.5,257.5 Z"></path></g><g><path style="opacity:1" fill="#dedbee" d="M 463.5,244.5 C 466.086,241.994 466.086,239.494 463.5,237C 426.5,236.333 389.5,236.333 352.5,237C 351.956,237.717 351.289,238.217 350.5,238.5C 349.74,233.186 351.74,229.353 356.5,227C 393.833,226.333 431.167,226.333 468.5,227C 476.541,230.875 477.541,236.208 471.5,243C 468.986,244.252 466.32,244.752 463.5,244.5 Z"></path></g><g><path style="opacity:1" fill="#fcccbd" d="M 48.5,237.5 C 48.3335,247.172 48.5002,256.839 49,266.5C 74.977,281.903 101.144,296.903 127.5,311.5C 127.827,316.214 127.493,320.88 126.5,325.5C 97.5,308.667 68.5,291.833 39.5,275C 38.1774,260.563 38.1774,246.063 39.5,231.5C 42.7376,233.275 45.7376,235.275 48.5,237.5 Z"></path></g><g><path style="opacity:1" fill="#70d7a2" d="M 308.5,231.5 C 311.833,231.5 315.167,231.5 318.5,231.5C 318.5,234.167 318.5,236.833 318.5,239.5C 321.167,239.5 323.833,239.5 326.5,239.5C 326.5,242.833 326.5,246.167 326.5,249.5C 320.5,249.5 314.5,249.5 308.5,249.5C 308.5,243.5 308.5,237.5 308.5,231.5 Z"></path></g><g><path style="opacity:1" fill="#9ae69c" d="M 318.5,231.5 C 321.167,231.5 323.833,231.5 326.5,231.5C 326.5,234.167 326.5,236.833 326.5,239.5C 326.5,236.833 326.5,234.167 326.5,231.5C 323.833,231.5 321.167,231.5 318.5,231.5 Z"></path></g><g><path style="opacity:1" fill="#fdddcd" d="M 48.5,237.5 C 65.9893,247.413 83.6559,257.08 101.5,266.5C 109.958,262.103 118.291,257.437 126.5,252.5C 127.5,272.155 127.833,291.822 127.5,311.5C 101.144,296.903 74.977,281.903 49,266.5C 48.5002,256.839 48.3335,247.172 48.5,237.5 Z"></path></g><g><path style="opacity:1" fill="#030303" d="M 463.5,244.5 C 426.498,244.667 389.498,244.5 352.5,244C 350.845,242.556 350.178,240.722 350.5,238.5C 351.289,238.217 351.956,237.717 352.5,237C 389.5,236.333 426.5,236.333 463.5,237C 466.086,239.494 466.086,241.994 463.5,244.5 Z"></path></g><g><path style="opacity:1" fill="#38694e" d="M 308.5,231.5 C 314.645,230.51 320.978,230.177 327.5,230.5C 327.5,237.167 327.5,243.833 327.5,250.5C 320.978,250.823 314.645,250.49 308.5,249.5C 314.5,249.5 320.5,249.5 326.5,249.5C 326.5,246.167 326.5,242.833 326.5,239.5C 326.5,236.833 326.5,234.167 326.5,231.5C 323.833,231.5 321.167,231.5 318.5,231.5C 315.167,231.5 311.833,231.5 308.5,231.5 Z"></path></g><g><path style="opacity:1" fill="#f9c9ba" d="M 58.5,295.5 C 55.8554,296.491 53.522,297.991 51.5,300C 57.5,303.667 63.5,307.333 69.5,311C 72.532,310.313 75.1987,308.813 77.5,306.5C 79.9687,307.569 82.3021,308.902 84.5,310.5C 78.62,314.94 72.2866,318.607 65.5,321.5C 55.7282,316.238 46.0615,310.738 36.5,305C 42.5008,300.664 48.8341,296.831 55.5,293.5C 56.7387,293.942 57.7387,294.609 58.5,295.5 Z"></path></g><g><path style="opacity:1" fill="#fadaca" d="M 58.5,295.5 C 65.0323,298.929 71.3657,302.596 77.5,306.5C 75.1987,308.813 72.532,310.313 69.5,311C 63.5,307.333 57.5,303.667 51.5,300C 53.522,297.991 55.8554,296.491 58.5,295.5 Z"></path></g><g><path style="opacity:1" fill="#f3c5b7" d="M 205.5,299.5 C 183.74,311.41 162.073,323.577 140.5,336C 138.527,336.495 136.527,336.662 134.5,336.5C 156.708,323.141 179.208,310.141 202,297.5C 203.459,297.808 204.626,298.475 205.5,299.5 Z"></path></g><g><path style="opacity:1" fill="#dedbee" d="M 333.5,341.5 C 333.783,340.711 334.283,340.044 335,339.5C 335.667,329.5 335.667,319.5 335,309.5C 334.167,308.667 333.333,307.833 332.5,307C 322.5,306.333 312.5,306.333 302.5,307C 301.956,307.717 301.289,308.217 300.5,308.5C 299.74,303.186 301.74,299.353 306.5,297C 317.931,296.045 329.264,296.378 340.5,298C 342.378,299.543 343.878,301.376 345,303.5C 345.667,313.833 345.667,324.167 345,334.5C 343.179,339.999 339.345,342.332 333.5,341.5 Z"></path></g><g><path style="opacity:1" fill="#fddccc" d="M 205.5,299.5 C 206.492,299.328 207.158,299.662 207.5,300.5C 182.893,315.811 157.893,330.644 132.5,345C 131.5,345.667 130.5,345.667 129.5,345C 124.002,342.085 118.668,338.919 113.5,335.5C 115.4,333.384 117.733,332.051 120.5,331.5C 123.447,332.973 126.447,334.473 129.5,336C 131.134,336.494 132.801,336.66 134.5,336.5C 136.527,336.662 138.527,336.495 140.5,336C 162.073,323.577 183.74,311.41 205.5,299.5 Z"></path></g><g><path style="opacity:1" fill="#f9c9ba" d="M 207.5,300.5 C 209.473,301.487 211.473,302.487 213.5,303.5C 214.711,304.274 214.711,305.107 213.5,306C 184.038,322.633 154.704,339.467 125.5,356.5C 116.335,351.419 107.335,346.085 98.5,340.5C 104.167,337 109.833,333.5 115.5,330C 117.535,329.401 119.201,329.901 120.5,331.5C 117.733,332.051 115.4,333.384 113.5,335.5C 118.668,338.919 124.002,342.085 129.5,345C 130.5,345.667 131.5,345.667 132.5,345C 157.893,330.644 182.893,315.811 207.5,300.5 Z"></path></g><g><path style="opacity:1" fill="#0a0c0b" d="M 333.5,341.5 C 323.161,341.666 312.828,341.5 302.5,341C 302,340.5 301.5,340 301,339.5C 300.5,329.172 300.334,318.839 300.5,308.5C 301.289,308.217 301.956,307.717 302.5,307C 312.5,306.333 322.5,306.333 332.5,307C 333.333,307.833 334.167,308.667 335,309.5C 335.667,319.5 335.667,329.5 335,339.5C 334.283,340.044 333.783,340.711 333.5,341.5 Z"></path></g><g><path style="opacity:1" fill="#dad7ea" d="M 462.5,328.5 C 465.734,326.322 466.067,323.822 463.5,321C 426.5,320.333 389.5,320.333 352.5,321C 351.956,321.717 351.289,322.217 350.5,322.5C 349.74,317.186 351.74,313.353 356.5,311C 394.167,310.333 431.833,310.333 469.5,311C 476.134,314.838 477.134,319.838 472.5,326C 469.464,328.006 466.131,328.84 462.5,328.5 Z"></path></g><g><path style="opacity:1" fill="#f9c9ba" d="M 42.5,318.5 C 41.3362,347.997 41.1695,377.664 42,407.5C 68.4457,422.971 94.9457,438.305 121.5,453.5C 121.826,457.884 121.492,462.217 120.5,466.5C 91.0817,449.374 61.5817,432.374 32,415.5C 31.3333,380.833 31.3333,346.167 32,311.5C 35.6515,313.733 39.1515,316.066 42.5,318.5 Z"></path></g><g><path style="opacity:1" fill="#f8c9ba" d="M 218.5,311.5 C 219.664,345.998 219.831,380.664 219,415.5C 189.418,432.374 159.918,449.374 130.5,466.5C 129.333,432.172 129.167,397.838 130,363.5C 159.645,346.266 189.145,328.933 218.5,311.5 Z"></path></g><g><path style="opacity:1" fill="#539069" d="M 308.5,315.5 C 314.645,314.51 320.978,314.177 327.5,314.5C 327.823,321.022 327.49,327.355 326.5,333.5C 326.5,330.167 326.5,326.833 326.5,323.5C 326.5,320.833 326.5,318.167 326.5,315.5C 323.833,315.5 321.167,315.5 318.5,315.5C 315.167,315.5 311.833,315.5 308.5,315.5 Z"></path></g><g><path style="opacity:1" fill="#6fd7a2" d="M 308.5,315.5 C 311.833,315.5 315.167,315.5 318.5,315.5C 321.167,315.5 323.833,315.5 326.5,315.5C 326.5,318.167 326.5,320.833 326.5,323.5C 326.5,326.833 326.5,330.167 326.5,333.5C 320.5,333.5 314.5,333.5 308.5,333.5C 308.5,327.5 308.5,321.5 308.5,315.5 Z"></path></g><g><path style="opacity:1" fill="#9ae69c" d="M 318.5,315.5 C 321.167,315.5 323.833,315.5 326.5,315.5C 326.5,318.167 326.5,320.833 326.5,323.5C 323.833,323.5 321.167,323.5 318.5,323.5C 318.5,320.833 318.5,318.167 318.5,315.5 Z"></path></g><g><path style="opacity:1" fill="#90594e" d="M 96.5,317.5 C 90.8141,320.094 85.3141,323.094 80,326.5C 79.1691,333.192 79.3358,339.858 80.5,346.5C 82.3604,347.26 84.027,348.26 85.5,349.5C 85.8256,353.884 85.4922,358.217 84.5,362.5C 79.8333,359.833 75.1667,357.167 70.5,354.5C 69.1667,345.833 69.1667,337.167 70.5,328.5C 78.0045,323.913 85.6712,319.58 93.5,315.5C 94.7387,315.942 95.7387,316.609 96.5,317.5 Z"></path></g><g><path style="opacity:1" fill="#ffdece" d="M 216.5,316.5 C 217.833,331.485 218.499,346.818 218.5,362.5C 218.167,377.833 217.833,393.167 217.5,408.5C 191.585,423.374 165.751,438.374 140,453.5C 139.333,422.833 139.333,392.167 140,361.5C 165.645,346.6 191.145,331.6 216.5,316.5 Z"></path></g><g><path style="opacity:1" fill="#a9685c" d="M 96.5,317.5 C 98.3684,318.263 100.035,319.263 101.5,320.5C 96.5702,323.58 91.7368,326.913 87,330.5C 85.7475,333.014 85.2475,335.68 85.5,338.5C 85.5,342.167 85.5,345.833 85.5,349.5C 84.027,348.26 82.3604,347.26 80.5,346.5C 79.3358,339.858 79.1691,333.192 80,326.5C 85.3141,323.094 90.8141,320.094 96.5,317.5 Z"></path></g><g><path style="opacity:1" fill="#fedece" d="M 42.5,318.5 C 48.8519,321.427 55.0186,324.76 61,328.5C 61.1908,338.547 61.6908,348.547 62.5,358.5C 70.3687,363.532 78.3687,368.365 86.5,373C 88.4727,373.495 90.4727,373.662 92.5,373.5C 96.1916,374.029 99.3583,373.029 102,370.5C 103.351,364.928 103.851,359.262 103.5,353.5C 109.685,356.178 115.519,359.511 121,363.5C 121.5,393.498 121.667,423.498 121.5,453.5C 94.9457,438.305 68.4457,422.971 42,407.5C 41.1695,377.664 41.3362,347.997 42.5,318.5 Z"></path></g><g><path style="opacity:1" fill="#080809" d="M 462.5,328.5 C 425.832,328.667 389.165,328.5 352.5,328C 350.845,326.556 350.178,324.722 350.5,322.5C 351.289,322.217 351.956,321.717 352.5,321C 389.5,320.333 426.5,320.333 463.5,321C 466.067,323.822 465.734,326.322 462.5,328.5 Z"></path></g><g><path style="opacity:1" fill="#8f584d" d="M 101.5,320.5 C 103.941,321.557 106.275,322.89 108.5,324.5C 100.972,329.429 93.3054,334.096 85.5,338.5C 85.2475,335.68 85.7475,333.014 87,330.5C 91.7368,326.913 96.5702,323.58 101.5,320.5 Z"></path></g><g><path style="opacity:1" fill="#f9c9ba" d="M 103.5,353.5 C 103.851,359.262 103.351,364.928 102,370.5C 99.3583,373.029 96.1916,374.029 92.5,373.5C 93.3046,364.911 93.8046,356.244 94,347.5C 97.3402,349.363 100.507,351.363 103.5,353.5 Z"></path></g><g><path style="opacity:1" fill="#a06257" d="M 503.5,389.5 C 503.5,390.167 503.5,390.833 503.5,391.5C 501.66,393.168 499.66,394.668 497.5,396C 424.752,396.993 352.085,396.66 279.5,395C 350.001,394.833 420.335,394.333 490.5,393.5C 491.167,393.5 491.833,393.5 492.5,393.5C 496.804,393.734 500.471,392.4 503.5,389.5 Z"></path></g></svg>