<svg xmlns="http://www.w3.org/2000/svg" xmlns:xlink="http://www.w3.org/1999/xlink" width="512px" height="512px" style="shape-rendering:geometricPrecision; text-rendering:geometricPrecision; image-rendering:optimizeQuality; fill-rule:evenodd; clip-rule:evenodd"><g><path style="opacity:0.994" fill="#596d7d" d="M 380.5,197.5 C 377.5,197.5 374.5,197.5 371.5,197.5C 371.5,155.833 371.5,114.167 371.5,72.5C 324.5,72.5 277.5,72.5 230.5,72.5C 229.833,135.833 229.167,199.167 228.5,262.5C 226.229,260.734 224.063,258.734 222,256.5C 221.5,232.836 221.333,209.169 221.5,185.5C 221.333,146.499 221.5,107.499 222,68.5C 223.167,67.3333 224.333,66.1667 225.5,65C 274.121,63.3524 322.788,63.0191 371.5,64C 375.939,64.1298 378.772,66.2965 380,70.5C 380.5,112.832 380.667,155.165 380.5,197.5 Z"></path></g><g><path style="opacity:1" fill="#b5d1da" d="M 230.5,72.5 C 230.5,136.5 230.5,200.5 230.5,264.5C 229.5,264.167 228.833,263.5 228.5,262.5C 229.167,199.167 229.833,135.833 230.5,72.5 Z"></path></g><g><path style="opacity:1" fill="#d9f9fe" d="M 230.5,72.5 C 277.5,72.5 324.5,72.5 371.5,72.5C 371.5,114.167 371.5,155.833 371.5,197.5C 366.156,197.334 360.823,197.501 355.5,198C 345.565,202.674 342.732,210.174 347,220.5C 349.592,223.762 352.759,226.262 356.5,228C 346.898,231.625 343.398,238.458 346,248.5C 348.526,252.69 352.026,255.857 356.5,258C 346.075,262.357 342.908,269.857 347,280.5C 349.452,283.821 352.618,286.321 356.5,288C 347.066,291.699 343.566,298.532 346,308.5C 347.902,313.4 351.402,316.567 356.5,318C 361.489,318.499 366.489,318.666 371.5,318.5C 371.5,324.5 371.5,330.5 371.5,336.5C 329.5,336.5 287.5,336.5 245.5,336.5C 248.868,318.935 248.035,301.602 243,284.5C 239.796,277.151 235.629,270.484 230.5,264.5C 230.5,200.5 230.5,136.5 230.5,72.5 Z"></path></g><g><path style="opacity:1" fill="#9f67a9" d="M 345.5,100.5 C 345.5,115.5 345.5,130.5 345.5,145.5C 315.5,145.5 285.5,145.5 255.5,145.5C 255.5,130.5 255.5,115.5 255.5,100.5C 285.5,100.5 315.5,100.5 345.5,100.5 Z"></path></g><g><path style="opacity:1" fill="#bbaad0" d="M 345.5,100.5 C 346.496,115.658 346.83,130.991 346.5,146.5C 315.995,146.831 285.662,146.498 255.5,145.5C 285.5,145.5 315.5,145.5 345.5,145.5C 345.5,130.5 345.5,115.5 345.5,100.5 Z"></path></g><g><path style="opacity:0.995" fill="#fddccd" d="M 221.5,185.5 C 221.333,209.169 221.5,232.836 222,256.5C 224.063,258.734 226.229,260.734 228.5,262.5C 228.833,263.5 229.5,264.167 230.5,264.5C 235.629,270.484 239.796,277.151 243,284.5C 248.035,301.602 248.868,318.935 245.5,336.5C 244.837,338.804 244.17,341.137 243.5,343.5C 275.331,344.167 306.997,344.833 338.5,345.5C 324.828,374.424 301.994,386.424 270,381.5C 255.731,382.605 244.898,389.272 237.5,401.5C 211.783,376.783 186.783,351.45 162.5,325.5C 171.4,320.401 176.9,312.735 179,302.5C 179.333,264.5 179.667,226.5 180,188.5C 182.812,177.69 189.812,172.023 201,171.5C 210.712,172.095 217.545,176.762 221.5,185.5 Z"></path></g><g><path style="opacity:1" fill="#9f68a9" d="M 255.5,175.5 C 275.5,175.5 295.5,175.5 315.5,175.5C 315.5,187.167 315.5,198.833 315.5,210.5C 295.5,210.5 275.5,210.5 255.5,210.5C 255.5,198.833 255.5,187.167 255.5,175.5 Z"></path></g><g><path style="opacity:0.991" fill="#fdddce" d="M 371.5,197.5 C 374.5,197.5 377.5,197.5 380.5,197.5C 389.229,198.566 393.896,203.566 394.5,212.5C 393.894,219.89 390.228,225.057 383.5,228C 393.034,232.258 396.201,239.425 393,249.5C 390.778,253.388 387.612,256.221 383.5,258C 393.743,263.134 396.577,270.968 392,281.5C 389.635,284.869 386.468,287.036 382.5,288C 393.604,292.56 396.771,300.394 392,311.5C 389.149,315.506 385.315,317.84 380.5,318.5C 377.5,318.5 374.5,318.5 371.5,318.5C 366.489,318.666 361.489,318.499 356.5,318C 351.402,316.567 347.902,313.4 346,308.5C 343.566,298.532 347.066,291.699 356.5,288C 352.618,286.321 349.452,283.821 347,280.5C 342.908,269.857 346.075,262.357 356.5,258C 352.026,255.857 348.526,252.69 346,248.5C 343.398,238.458 346.898,231.625 356.5,228C 352.759,226.262 349.592,223.762 347,220.5C 342.732,210.174 345.565,202.674 355.5,198C 360.823,197.501 366.156,197.334 371.5,197.5 Z"></path></g><g><path style="opacity:1" fill="#9f68a9" d="M 255.5,243.5 C 275.5,243.5 295.5,243.5 315.5,243.5C 315.5,252.833 315.5,262.167 315.5,271.5C 301.774,271.927 288.107,271.427 274.5,270C 262.894,264.958 256.561,256.124 255.5,243.5 Z"></path></g><g><path style="opacity:1" fill="#637888" d="M 286.5,315.5 C 295.839,315.334 305.173,315.5 314.5,316C 318.5,318.667 318.5,321.333 314.5,324C 305.5,324.667 296.5,324.667 287.5,324C 283.868,321.653 283.535,318.82 286.5,315.5 Z"></path></g><g><path style="opacity:0.98" fill="#5b6f80" d="M 371.5,318.5 C 374.5,318.5 377.5,318.5 380.5,318.5C 380.666,325.175 380.5,331.842 380,338.5C 379.654,340.848 378.487,342.681 376.5,344C 363.933,345.461 351.266,345.961 338.5,345.5C 306.997,344.833 275.331,344.167 243.5,343.5C 244.17,341.137 244.837,338.804 245.5,336.5C 287.5,336.5 329.5,336.5 371.5,336.5C 371.5,330.5 371.5,324.5 371.5,318.5 Z"></path></g><g><path style="opacity:0.993" fill="#9f67a9" d="M 162.5,325.5 C 186.783,351.45 211.783,376.783 237.5,401.5C 244.978,407.412 246.811,414.746 243,423.5C 235.421,433.082 226.587,441.248 216.5,448C 211.597,448.937 206.93,448.27 202.5,446C 175,418.5 147.5,391 120,363.5C 117.165,357.981 116.831,352.314 119,346.5C 125.802,338.697 132.969,331.197 140.5,324C 148.231,319.049 155.565,319.549 162.5,325.5 Z"></path></g></svg>